<svg xmlns="http://www.w3.org/2000/svg" viewBox="0 0 800 600" role="img">
<defs>
<linearGradient id="bg5" x1="0" y1="0" x2="1" y2="1">
<stop offset="0" stop-color="#0f2b3d"/><stop offset="1" stop-color="#1a5c91"/>
</linearGradient>
</defs>
<rect width="800" height="600" fill="url(#bg5)"/>
<circle cx="305" cy="345" r="140" fill="#e8f1fa" opacity="0.08"/>
<circle cx="455" cy="215" r="180" fill="#e8f1fa" opacity="0.06"/>

<g transform="translate(400,300)">
<ellipse cx="0" cy="40" rx="150" ry="120" fill="#e8f1fa"/>
<circle cx="-70" cy="-90" r="55" fill="#e8f1fa"/>
<circle cx="70" cy="-90" r="55" fill="#e8f1fa"/>
<circle cx="-70" cy="-90" r="28" fill="#1a5c91"/>
<circle cx="70" cy="-90" r="28" fill="#1a5c91"/>
<ellipse cx="0" cy="-30" rx="95" ry="80" fill="#e8f1fa"/>
<path d="M -95 -55 Q 0 -110 95 -55 Q 60 -30 0 -20 Q -60 -30 -95 -55 Z" fill="#1a5c91"/>
<circle cx="-32" cy="-40" r="14" fill="#1a1a1a"/>
<circle cx="32" cy="-40" r="14" fill="#1a1a1a"/>
<ellipse cx="0" cy="-8" rx="16" ry="11" fill="#1a1a1a"/>
<path d="M 150 60 Q 230 30 220 -40 Q 210 -100 150 -80" fill="none" stroke="#e8f1fa" stroke-width="42" stroke-linecap="round"/>
<path d="M 175 50 L 195 50 M 178 5 L 198 5 M 180 -35 L 200 -35" stroke="#1a5c91" stroke-width="14"/>
</g></svg>