<svg xmlns="http://www.w3.org/2000/svg" viewBox="0 0 800 600" role="img">
<defs>
<linearGradient id="bg13" x1="0" y1="0" x2="1" y2="1">
<stop offset="0" stop-color="#0f2b3d"/><stop offset="1" stop-color="#1a5c91"/>
</linearGradient>
</defs>
<rect width="800" height="600" fill="url(#bg13)"/>
<circle cx="601" cy="419" r="140" fill="#e8f1fa" opacity="0.08"/>
<circle cx="223" cy="187" r="180" fill="#e8f1fa" opacity="0.06"/>

<g transform="translate(400,320)">
<ellipse cx="-20" cy="20" rx="150" ry="90" fill="#1a1a1a"/>
<path d="M -150 30 Q -60 -70 60 30 Q -30 60 -150 30 Z" fill="#e8f1fa"/>
<ellipse cx="120" cy="-20" rx="60" ry="55" fill="#1a1a1a"/>
<path d="M 85 -55 Q 120 -110 165 -60" fill="none" stroke="#e8f1fa" stroke-width="16" stroke-linecap="round"/>
<circle cx="108" cy="-25" r="26" fill="#1a5c91"/>
<circle cx="100" cy="-30" r="7" fill="#1a1a1a"/>
<ellipse cx="150" cy="-5" rx="10" ry="7" fill="#2a2a2a"/>
<path d="M -180 60 Q -260 30 -250 -60 Q -240 -140 -160 -120 Q -190 -60 -170 10 Q -160 45 -180 60 Z" fill="#e8f1fa"/>
</g></svg>