<svg xmlns="http://www.w3.org/2000/svg" viewBox="0 0 800 600" role="img">
<defs>
<linearGradient id="bg22" x1="0" y1="0" x2="1" y2="1">
<stop offset="0" stop-color="#233d0f"/><stop offset="1" stop-color="#5c8a1a"/>
</linearGradient>
</defs>
<rect width="800" height="600" fill="url(#bg22)"/>
<circle cx="434" cy="196" r="140" fill="#f0f7e8" opacity="0.08"/>
<circle cx="362" cy="418" r="180" fill="#f0f7e8" opacity="0.06"/>

<g transform="translate(400,300)">
<ellipse cx="0" cy="0" rx="26" ry="70" fill="#5c8a1a" transform="rotate(15)"/>
<circle cx="0" cy="-70" r="22" fill="#5c8a1a"/>
<path d="M 0 -90 L 90 -140" stroke="#5c8a1a" stroke-width="7" stroke-linecap="round"/>
<ellipse cx="55" cy="-30" rx="110" ry="46" fill="#f0f7e8" opacity="0.85" transform="rotate(-18 55 -30)"/>
<ellipse cx="-55" cy="-30" rx="110" ry="46" fill="#f0f7e8" opacity="0.6" transform="rotate(18 -55 -30)"/>
<line x1="0" y1="0" x2="-51.41332520213684" y2="30.93008230928785" stroke="#f0f7e8" stroke-width="6" stroke-linecap="round" transform="translate(-10,10) rotate(20)"/><line x1="0" y1="0" x2="-51.41332520213684" y2="30.93008230928785" stroke="#f0f7e8" stroke-width="6" stroke-linecap="round" transform="translate(-10,20) rotate(45)"/><line x1="0" y1="0" x2="-51.41332520213684" y2="30.93008230928785" stroke="#f0f7e8" stroke-width="6" stroke-linecap="round" transform="translate(-10,30) rotate(70)"/><line x1="0" y1="0" x2="51.41332520213684" y2="30.930082309287844" stroke="#f0f7e8" stroke-width="6" stroke-linecap="round" transform="translate(10,10) rotate(-20)"/><line x1="0" y1="0" x2="51.41332520213684" y2="30.930082309287844" stroke="#f0f7e8" stroke-width="6" stroke-linecap="round" transform="translate(10,20) rotate(-45)"/><line x1="0" y1="0" x2="51.41332520213684" y2="30.930082309287844" stroke="#f0f7e8" stroke-width="6" stroke-linecap="round" transform="translate(10,30) rotate(-70)"/>
</g></svg>