<svg xmlns="http://www.w3.org/2000/svg" viewBox="0 0 800 600" role="img">
<defs>
<linearGradient id="bg2" x1="0" y1="0" x2="1" y2="1">
<stop offset="0" stop-color="#3d2b0f"/><stop offset="1" stop-color="#a3651a"/>
</linearGradient>
</defs>
<rect width="800" height="600" fill="url(#bg2)"/>
<circle cx="194" cy="186" r="140" fill="#faf1e3" opacity="0.08"/>
<circle cx="542" cy="338" r="180" fill="#faf1e3" opacity="0.06"/>

<g transform="translate(400,300)">
<ellipse cx="0" cy="40" rx="150" ry="120" fill="#faf1e3"/>
<circle cx="-70" cy="-90" r="55" fill="#faf1e3"/>
<circle cx="70" cy="-90" r="55" fill="#faf1e3"/>
<circle cx="-70" cy="-90" r="28" fill="#a3651a"/>
<circle cx="70" cy="-90" r="28" fill="#a3651a"/>
<ellipse cx="0" cy="-30" rx="95" ry="80" fill="#faf1e3"/>
<path d="M -95 -55 Q 0 -110 95 -55 Q 60 -30 0 -20 Q -60 -30 -95 -55 Z" fill="#a3651a"/>
<circle cx="-32" cy="-40" r="14" fill="#1a1a1a"/>
<circle cx="32" cy="-40" r="14" fill="#1a1a1a"/>
<ellipse cx="0" cy="-8" rx="16" ry="11" fill="#1a1a1a"/>
<path d="M 150 60 Q 230 30 220 -40 Q 210 -100 150 -80" fill="none" stroke="#faf1e3" stroke-width="42" stroke-linecap="round"/>
<path d="M 175 50 L 195 50 M 178 5 L 198 5 M 180 -35 L 200 -35" stroke="#a3651a" stroke-width="14"/>
</g></svg>