<svg xmlns="http://www.w3.org/2000/svg" viewBox="0 0 800 600" role="img">
<defs>
<linearGradient id="bg33" x1="0" y1="0" x2="1" y2="1">
<stop offset="0" stop-color="#0b3554"/><stop offset="1" stop-color="#1a6fa3"/>
</linearGradient>
</defs>
<rect width="800" height="600" fill="url(#bg33)"/>
<circle cx="341" cy="429" r="140" fill="#e7f3fa" opacity="0.08"/>
<circle cx="443" cy="267" r="180" fill="#e7f3fa" opacity="0.06"/>

<g transform="translate(400,300)">
<ellipse cx="0" cy="0" rx="90" ry="150" fill="#e7f3fa"/>
<ellipse cx="0" cy="-50" rx="70" ry="18" fill="#1a6fa3" opacity="0.5"/><ellipse cx="0" cy="-20" rx="70" ry="18" fill="#1a6fa3" opacity="0.5"/><ellipse cx="0" cy="10" rx="70" ry="18" fill="#1a6fa3" opacity="0.5"/><ellipse cx="0" cy="40" rx="70" ry="18" fill="#1a6fa3" opacity="0.5"/>
<ellipse cx="0" cy="-140" rx="45" ry="38" fill="#e7f3fa"/>
<path d="M -20 -170 L -70 -230 M 20 -170 L 70 -230" stroke="#1a6fa3" stroke-width="6" stroke-linecap="round"/>
<path d="M -90 -60 L -170 -90 M -90 0 L -180 0 M -90 60 L -170 90" stroke="#1a6fa3" stroke-width="10" stroke-linecap="round"/>
<path d="M 90 -60 L 170 -90 M 90 0 L 180 0 M 90 60 L 170 90" stroke="#1a6fa3" stroke-width="10" stroke-linecap="round"/>
</g></svg>