<svg xmlns="http://www.w3.org/2000/svg" viewBox="0 0 800 600" role="img">
<defs>
<linearGradient id="bg27" x1="0" y1="0" x2="1" y2="1">
<stop offset="0" stop-color="#2b0f3d"/><stop offset="1" stop-color="#6b2c91"/>
</linearGradient>
</defs>
<rect width="800" height="600" fill="url(#bg27)"/>
<circle cx="619" cy="111" r="140" fill="#f3e8fa" opacity="0.08"/>
<circle cx="217" cy="213" r="180" fill="#f3e8fa" opacity="0.06"/>

<g transform="translate(400,320)">
<path d="M -160 40 Q -60 -120 140 -20 Q 220 20 180 90 Q 60 130 -160 40 Z" fill="#f3e8fa"/>
<circle cx="140" cy="-30" r="60" fill="#f3e8fa"/>
<circle cx="100" cy="-75" r="22" fill="#6b2c91"/>
<circle cx="165" cy="-70" r="20" fill="#6b2c91"/>
<circle cx="160" cy="-25" r="9" fill="#1a1a1a"/>
<ellipse cx="195" cy="-5" rx="12" ry="8" fill="#2a2a2a"/>
<path d="M 195 5 Q 230 15 220 30 Q 205 20 190 15" fill="#6b2c91"/>
<path d="M -160 40 Q -260 60 -320 20 Q -280 5 -220 15 Q -270 -20 -300 -60 Q -230 -40 -190 0" fill="none" stroke="#6b2c91" stroke-width="10" stroke-linecap="round"/>
</g></svg>